<svg id="visual" viewBox="0 0 1920 1080" width="1920" height="1080" xmlns="http://www.w3.org/2000/svg" xmlns:xlink="http://www.w3.org/1999/xlink" version="1.1"><rect x="0" y="0" width="1920" height="1080" fill="#18181B"></rect><path d="M0 55L45.7 51.5C91.3 48 182.7 41 274.2 44.7C365.7 48.3 457.3 62.7 548.8 72.5C640.3 82.3 731.7 87.7 823 92.3C914.3 97 1005.7 101 1097 113C1188.3 125 1279.7 145 1371.2 146.5C1462.7 148 1554.3 131 1645.8 107.2C1737.3 83.3 1828.7 52.7 1874.3 37.3L1920 22L1920 0L1874.3 0C1828.7 0 1737.3 0 1645.8 0C1554.3 0 1462.7 0 1371.2 0C1279.7 0 1188.3 0 1097 0C1005.7 0 914.3 0 823 0C731.7 0 640.3 0 548.8 0C457.3 0 365.7 0 274.2 0C182.7 0 91.3 0 45.7 0L0 0Z" fill="#ffffff" stroke-linecap="round" stroke-linejoin="miter"></path></svg>