<svg id="visual" viewBox="0 0 900 1200" width="900" height="1200" xmlns="http://www.w3.org/2000/svg" xmlns:xlink="http://www.w3.org/1999/xlink" version="1.1"><rect x="0" y="0" width="900" height="1200" fill="#18181B"></rect><path d="M0 175L15 165.3C30 155.7 60 136.3 90 113.5C120 90.7 150 64.3 180 53.2C210 42 240 46 270 53C300 60 330 70 360 94.7C390 119.3 420 158.7 450 161.5C480 164.3 510 130.7 540 108.5C570 86.3 600 75.7 630 79.8C660 84 690 103 720 102C750 101 780 80 810 80.2C840 80.3 870 101.7 885 112.3L900 123L900 0L885 0C870 0 840 0 810 0C780 0 750 0 720 0C690 0 660 0 630 0C600 0 570 0 540 0C510 0 480 0 450 0C420 0 390 0 360 0C330 0 300 0 270 0C240 0 210 0 180 0C150 0 120 0 90 0C60 0 30 0 15 0L0 0Z" fill="#ffffff" stroke-linecap="round" stroke-linejoin="miter"></path></svg>